<svg width="16" height="16" viewBox="0 0 16 16" fill="none" xmlns="http://www.w3.org/2000/svg">
<path fill-rule="evenodd" clip-rule="evenodd" d="M2.33203 3.66732C2.33203 2.93094 2.92862 2.33398 3.66456 2.33398H7.49503H7.82796C8.01205 2.33398 8.16129 2.48322 8.16129 2.66732V3.33398C8.16129 3.51808 8.01205 3.66732 7.82796 3.66732H7.49503H3.66456V12.3328H12.3248V12.3292V12.3247V12.3201V12.3156V12.311V12.3064V12.3018V12.2972V12.2925V12.2879V12.2832V12.2786V12.2739V12.2692V12.2645V12.2597V12.255V12.2502V12.2455V12.2407V12.2359V12.2311V12.2263V12.2214V12.2166V12.2117V12.2069V12.202V12.1971V12.1922V12.1872V12.1823V12.1773V12.1724V12.1674V12.1624V12.1574V12.1524V12.1473V12.1423V12.1372V12.1322V12.1271V12.122V12.1169V12.1117V12.1066V12.1014V12.0963V12.0911V12.0859V12.0807V12.0755V12.0703V12.065V12.0598V12.0545V12.0492V12.0439V12.0386V12.0333V12.028V12.0226V12.0173V12.0119V12.0065V12.0011V11.9957V11.9903V11.9848V11.9794V11.9739V11.9685V11.963V11.9575V11.952V11.9465V11.9409V11.9354V11.9298V11.9242V11.9186V11.9131V11.9074V11.9018V11.8962V11.8905V11.8849V11.8792V11.8735V11.8678V11.8621V11.8564V11.8507V11.8449V11.8392V11.8334V11.8276V11.8218V11.816V11.8102V11.8043V11.7985V11.7926V11.7868V11.7809V11.775V11.7691V11.7632V11.7573V11.7513V11.7454V11.7394V11.7334V11.7274V11.7214V11.7154V11.7094V11.7034V11.6973V11.6913V11.6852V11.6791V11.673V11.6669V11.6608V11.6546V11.6485V11.6423V11.6362V11.63V11.6238V11.6176V11.6114V11.6052V11.5989V11.5927V11.5864V11.5802V11.5739V11.5676V11.5613V11.555V11.5486V11.5423V11.5359V11.5296V11.5232V11.5168V11.5104V11.504V11.4976V11.4912V11.4847V11.4783V11.4718V11.4653V11.4588V11.4523V11.4458V11.4393V11.4328V11.4262V11.4197V11.4131V11.4065V11.3999V11.3933V11.3867V11.3801V11.3735V11.3668V11.3602V11.3535V11.3468V11.3401V11.3334V11.3267V11.32V11.3133V11.3065V11.2998V11.293V11.2862V11.2794V11.2726V11.2658V11.259V11.2522V11.2453V11.2385V11.2316V11.2248V11.2179V11.211V11.2041V11.1972V11.1902V11.1833V11.1763V11.1694V11.1624V11.1554V11.1484V11.1414V11.1344V11.1274V11.1204V11.1133V11.1063V11.0992V11.0921V11.0851V11.078V11.0709V11.0637V11.0566V11.0495V11.0423V11.0352V11.028V11.0208V11.0136V11.0064V10.9992V10.992V10.9848V10.9776V10.9703V10.963V10.9558V10.9485V10.9412V10.9339V10.9266V10.9193V10.9119V10.9046V10.8973V10.8899V10.8825V10.8752V10.8678V10.8604V10.853V10.8455V10.8381V10.8307V10.8232V10.8158V10.8083V10.8008V10.7933V10.7858V10.7783V10.7708V10.7633V10.7557V10.7482V10.7406V10.7331V10.7255V10.7179V10.7103V10.7027V10.6951V10.6875V10.6798V10.6722V10.6645V10.6569V10.6492V10.6415V10.6338V10.6261V10.6184V10.6107V10.603V10.5953V10.5875V10.5798V10.572V10.5642V10.5564V10.5486V10.5408V10.533V10.5252V10.5174V10.5095V10.5017V10.4938V10.486V10.4781V10.4702V10.4623V10.4544V10.4465V10.4386V10.4307V10.4227V10.4148V10.4068V10.3989V10.3909V10.3829V10.3749V10.3669V10.3589V10.3509V10.3428V10.3348V10.3268V10.3187V10.3106V10.3026V10.2945V10.2864V10.2783V10.2702V10.2621V10.254V10.2458V10.2377V10.2295V10.2214V10.2132V10.205V10.1968V10.1887V10.1805V10.1722V10.164V10.1558V10.1476V10.1393V10.1311V10.1228V10.1145V10.1063V10.098V10.0897V10.0814V10.0731V10.0647V10.0564V10.0481V10.0397V10.0314V10.023V10.0147V10.0063V9.9979V9.9895V9.9811V9.97269V9.96428V9.95585V9.94742V9.93897V9.93052V9.92207V9.9136V9.90513V9.89664V9.88815V9.87966V9.87115V9.86263V9.85411V9.84558V9.83705V9.8285V9.81995V9.81139V9.80282V9.79424V9.78566V9.77706V9.76846V9.75985V9.75124V9.74262V9.73398V9.72535V9.7167V9.70805V9.69938V9.69072V9.68204V9.67335V9.66466V9.65596V9.64725V9.63854V9.62982V9.62109V9.61235V9.60361V9.59486V9.5861V9.57733V9.56856V9.55977V9.55098V9.54219V9.53339V9.52457V9.51576V9.50693V9.4981V9.48926V9.48041V9.47156V9.4627V9.45383V9.44495V9.43607V9.42718V9.41828V9.40938V9.40046V9.39155V9.38262V9.37369V9.36475V9.3558V9.34685V9.33789V9.32892V9.31994V9.31096V9.30197V9.29298V9.28398V9.27497V9.26595V9.25693V9.2479V9.23886V9.22982V9.22077V9.21171V9.20265V9.19358V9.1845V9.17542V9.16633V9.15723V9.14813V9.13902V9.1299V9.12078V9.11165V9.10251V9.09337V9.08422V9.07506V9.0659V9.05673V9.04755V9.03837V9.02918V9.01999V9.01079V9.00158V8.99237V8.98315V8.97392V8.96469V8.95545V8.9462V8.93695V8.92769V8.91843V8.90916V8.89988V8.8906V8.88131V8.87201V8.86271V8.8534V8.84409V8.83477V8.82544V8.81611V8.80677V8.79743V8.78808V8.77872V8.76936V8.75999V8.75062V8.74124V8.73185V8.72246V8.71306V8.70366V8.69425V8.68483V8.67541V8.66598V8.65655V8.64711V8.63767V8.62822V8.61876V8.6093V8.59983V8.59036V8.58088V8.5714V8.23806C12.3248 8.05397 12.474 7.90473 12.6581 7.90473H13.324C13.5081 7.90473 13.6573 8.05397 13.6573 8.23806V8.5714V8.58088V8.59036V8.59983V8.6093V8.61876V8.62822V8.63767V8.64711V8.65655V8.66598V8.67541V8.68483V8.69425V8.70366V8.71306V8.72246V8.73185V8.74124V8.75062V8.75999V8.76936V8.77872V8.78808V8.79743V8.80677V8.81611V8.82544V8.83477V8.84409V8.8534V8.86271V8.87201V8.88131V8.8906V8.89988V8.90916V8.91843V8.92769V8.93695V8.9462V8.95545V8.96469V8.97392V8.98315V8.99237V9.00158V9.01079V9.01999V9.02918V9.03837V9.04755V9.05673V9.0659V9.07506V9.08422V9.09337V9.10251V9.11165V9.12078V9.1299V9.13902V9.14813V9.15723V9.16633V9.17542V9.1845V9.19358V9.20265V9.21171V9.22077V9.22982V9.23886V9.2479V9.25693V9.26595V9.27497V9.28398V9.29298V9.30197V9.31096V9.31994V9.32892V9.33789V9.34685V9.3558V9.36475V9.37369V9.38262V9.39155V9.40046V9.40938V9.41828V9.42718V9.43607V9.44495V9.45383V9.4627V9.47156V9.48041V9.48926V9.4981V9.50693V9.51576V9.52457V9.53339V9.54219V9.55098V9.55977V9.56856V9.57733V9.5861V9.59486V9.60361V9.61235V9.62109V9.62982V9.63854V9.64725V9.65596V9.66466V9.67335V9.68204V9.69072V9.69938V9.70805V9.7167V9.72535V9.73398V9.74262V9.75124V9.75985V9.76846V9.77706V9.78566V9.79424V9.80282V9.81139V9.81995V9.8285V9.83705V9.84558V9.85411V9.86263V9.87115V9.87966V9.88815V9.89664V9.90513V9.9136V9.92207V9.93052V9.93897V9.94742V9.95585V9.96428V9.97269V9.9811V9.9895V9.9979V10.0063V10.0147V10.023V10.0314V10.0397V10.0481V10.0564V10.0647V10.0731V10.0814V10.0897V10.098V10.1063V10.1145V10.1228V10.1311V10.1393V10.1476V10.1558V10.164V10.1722V10.1805V10.1887V10.1968V10.205V10.2132V10.2214V10.2295V10.2377V10.2458V10.254V10.2621V10.2702V10.2783V10.2864V10.2945V10.3026V10.3106V10.3187V10.3268V10.3348V10.3428V10.3509V10.3589V10.3669V10.3749V10.3829V10.3909V10.3989V10.4068V10.4148V10.4227V10.4307V10.4386V10.4465V10.4544V10.4623V10.4702V10.4781V10.486V10.4938V10.5017V10.5095V10.5174V10.5252V10.533V10.5408V10.5486V10.5564V10.5642V10.572V10.5798V10.5875V10.5953V10.603V10.6107V10.6184V10.6261V10.6338V10.6415V10.6492V10.6569V10.6645V10.6722V10.6798V10.6875V10.6951V10.7027V10.7103V10.7179V10.7255V10.7331V10.7406V10.7482V10.7557V10.7633V10.7708V10.7783V10.7858V10.7933V10.8008V10.8083V10.8158V10.8232V10.8307V10.8381V10.8455V10.853V10.8604V10.8678V10.8752V10.8825V10.8899V10.8973V10.9046V10.9119V10.9193V10.9266V10.9339V10.9412V10.9485V10.9558V10.963V10.9703V10.9776V10.9848V10.992V10.9992V11.0064V11.0136V11.0208V11.028V11.0352V11.0423V11.0495V11.0566V11.0637V11.0709V11.078V11.0851V11.0921V11.0992V11.1063V11.1133V11.1204V11.1274V11.1344V11.1414V11.1484V11.1554V11.1624V11.1694V11.1763V11.1833V11.1902V11.1972V11.2041V11.211V11.2179V11.2248V11.2316V11.2385V11.2453V11.2522V11.259V11.2658V11.2726V11.2794V11.2862V11.293V11.2998V11.3065V11.3133V11.32V11.3267V11.3334V11.3401V11.3468V11.3535V11.3602V11.3668V11.3735V11.3801V11.3867V11.3933V11.3999V11.4065V11.4131V11.4197V11.4262V11.4328V11.4393V11.4458V11.4523V11.4588V11.4653V11.4718V11.4783V11.4847V11.4912V11.4976V11.504V11.5104V11.5168V11.5232V11.5296V11.5359V11.5423V11.5486V11.555V11.5613V11.5676V11.5739V11.5802V11.5864V11.5927V11.5989V11.6052V11.6114V11.6176V11.6238V11.63V11.6362V11.6423V11.6485V11.6546V11.6608V11.6669V11.673V11.6791V11.6852V11.6913V11.6973V11.7034V11.7094V11.7154V11.7214V11.7274V11.7334V11.7394V11.7454V11.7513V11.7573V11.7632V11.7691V11.775V11.7809V11.7868V11.7926V11.7985V11.8043V11.8102V11.816V11.8218V11.8276V11.8334V11.8392V11.8449V11.8507V11.8564V11.8621V11.8678V11.8735V11.8792V11.8849V11.8905V11.8962V11.9018V11.9074V11.9131V11.9186V11.9242V11.9298V11.9354V11.9409V11.9465V11.952V11.9575V11.963V11.9685V11.9739V11.9794V11.9848V11.9903V11.9957V12.0011V12.0065V12.0119V12.0173V12.0226V12.028V12.0333V12.0386V12.0439V12.0492V12.0545V12.0598V12.065V12.0703V12.0755V12.0807V12.0859V12.0911V12.0963V12.1014V12.1066V12.1117V12.1169V12.122V12.1271V12.1322V12.1372V12.1423V12.1473V12.1524V12.1574V12.1624V12.1674V12.1724V12.1773V12.1823V12.1872V12.1922V12.1971V12.202V12.2069V12.2117V12.2166V12.2214V12.2263V12.2311V12.2359V12.2407V12.2455V12.2502V12.255V12.2597V12.2645V12.2692V12.2739V12.2786V12.2832V12.2879V12.2925V12.2972V12.3018V12.3064V12.311V12.3156V12.3201V12.3247V12.3292V12.3337C13.6573 13.0714 13.0594 13.6661 12.3248 13.6661H3.66456C2.92862 13.6661 2.33203 13.0691 2.33203 12.3328V3.66732ZM11.4502 3.66895L6.59633 8.52573L6.3607 8.7615C6.23062 8.89166 6.23062 9.1026 6.3607 9.23276L6.83167 9.70402C6.96186 9.83429 7.17303 9.83429 7.30322 9.70402L7.53857 9.46854L12.3328 4.67137V5.66858C12.3328 5.85268 12.4821 6.00191 12.6662 6.00191H13.332C13.5161 6.00191 13.6654 5.85268 13.6654 5.66858V3.66895C13.6654 2.93257 13.0688 2.33562 12.3328 2.33562H10.3346C10.1505 2.33562 10.0013 2.48485 10.0013 2.66895V3.33562C10.0013 3.51971 10.1505 3.66895 10.3346 3.66895H11.4502Z" fill="#369AFE"/>
</svg>
