<svg width="48" height="48" viewBox="0 0 48 48" fill="none" xmlns="http://www.w3.org/2000/svg">
<circle opacity="0.5" cx="24" cy="24" r="24" fill="#212533"/>
<path fill-rule="evenodd" clip-rule="evenodd" d="M17.1515 17.1523C17.6201 16.6836 18.3799 16.6836 18.8486 17.1523L24 22.3037L29.1515 17.1523C29.6201 16.6836 30.3799 16.6836 30.8486 17.1523C31.3172 17.6209 31.3172 18.3807 30.8486 18.8493L25.6971 24.0008L30.8486 29.1523C31.3172 29.6209 31.3172 30.3807 30.8486 30.8493C30.3799 31.3179 29.6201 31.3179 29.1515 30.8493L24 25.6978L18.8486 30.8493C18.3799 31.3179 17.6201 31.3179 17.1515 30.8493C16.6829 30.3807 16.6829 29.6209 17.1515 29.1523L22.303 24.0008L17.1515 18.8493C16.6829 18.3807 16.6829 17.6209 17.1515 17.1523Z" fill="white"/>
</svg>
