<svg width="16" height="16" viewBox="0 0 16 16" fill="none" xmlns="http://www.w3.org/2000/svg">
<path d="M10.8331 11H5.16642C5.07438 11 4.99976 11.0746 4.99976 11.1667V12.1667C4.99976 12.2587 5.07438 12.3333 5.16642 12.3333H10.8331C10.9251 12.3333 10.9998 12.2587 10.9998 12.1667V11.1667C10.9998 11.0746 10.9251 11 10.8331 11Z" fill="#171718"/>
<path d="M5.16642 8.33337H8.49976C8.5918 8.33337 8.66642 8.40799 8.66642 8.50004V9.50004C8.66642 9.59209 8.5918 9.66671 8.49976 9.66671H5.16642C5.07438 9.66671 4.99976 9.59209 4.99976 9.50004V8.50004C4.99976 8.40799 5.07438 8.33337 5.16642 8.33337Z" fill="#171718"/>
<path fill-rule="evenodd" clip-rule="evenodd" d="M2.33301 2.66667C2.33301 1.74619 3.0792 1 3.99967 1H8.66634C8.83394 1 8.99541 1.06312 9.11854 1.1768L13.4519 5.1768C13.5886 5.303 13.6663 5.4806 13.6663 5.66667V13.3333C13.6663 14.2538 12.9201 15 11.9997 15H3.99967C3.0792 15 2.33301 14.2538 2.33301 13.3333V2.66667ZM3.99967 2.33333C3.81558 2.33333 3.66634 2.48257 3.66634 2.66667V13.3333C3.66634 13.5174 3.81558 13.6667 3.99967 13.6667H11.9997C12.1837 13.6667 12.333 13.5174 12.333 13.3333V6.33333H8.66634C8.29814 6.33333 7.99967 6.03485 7.99967 5.66667V2.33333H3.99967ZM9.33301 3.18932V5H11.2945L9.33301 3.18932Z" fill="#171718"/>
</svg>
