<svg width="16" height="16" viewBox="0 0 16 16" fill="none" xmlns="http://www.w3.org/2000/svg">
<path fill-rule="evenodd" clip-rule="evenodd" d="M6.7998 6.4002C7.73869 6.4002 8.4998 5.63908 8.4998 4.7002C8.4998 3.76131 7.73869 3.0002 6.7998 3.0002C5.86092 3.0002 5.0998 3.76131 5.0998 4.7002C5.0998 5.63908 5.86092 6.4002 6.7998 6.4002ZM6.7998 7.7002C8.45666 7.7002 9.7998 6.35705 9.7998 4.7002C9.7998 3.04334 8.45666 1.7002 6.7998 1.7002C5.14295 1.7002 3.7998 3.04334 3.7998 4.7002C3.7998 6.35705 5.14295 7.7002 6.7998 7.7002ZM11.1872 2.04707C10.8682 1.85481 10.4536 1.95761 10.2614 2.27668C10.0691 2.59575 10.1719 3.01027 10.491 3.20253C11 3.50925 11.338 4.06559 11.338 4.7002C11.338 5.3348 11 5.89114 10.491 6.19787C10.1719 6.39013 10.0691 6.80464 10.2614 7.12371C10.4536 7.44278 10.8682 7.54558 11.1872 7.35332C12.0845 6.81266 12.6871 5.82712 12.6871 4.7002C12.6871 3.57327 12.0845 2.58773 11.1872 2.04707ZM9.2998 9.70021C10.2387 9.70021 10.9998 10.4613 10.9998 11.4002V13.1002H2.5998V11.4002C2.5998 10.4613 3.36092 9.70021 4.2998 9.70021H9.2998ZM1.2998 11.4002C1.2998 9.74335 2.64295 8.40021 4.2998 8.40021H9.2998C10.9567 8.40021 12.2998 9.74335 12.2998 11.4002V13.9002C12.2998 14.1763 12.0759 14.4002 11.7998 14.4002H1.7998C1.52366 14.4002 1.2998 14.1763 1.2998 13.9002V11.4002ZM13.7963 8.54927C13.5422 8.29567 13.1306 8.29604 12.877 8.55012C12.6234 8.80419 12.6238 9.21575 12.8779 9.46936C13.0537 9.64488 13.1851 9.79456 13.2802 9.97843C13.3713 10.1544 13.4453 10.3946 13.4453 10.7606V13.7502C13.4453 14.1092 13.7363 14.4002 14.0953 14.4002C14.4542 14.4002 14.7453 14.109 14.7453 13.75V10.7606C14.7453 10.2032 14.6287 9.75588 14.4349 9.38121C14.2452 9.01439 13.9975 8.75013 13.7963 8.54927Z" fill="#171718"/>
</svg>
