<svg width="24" height="24" viewBox="0 0 24 24" fill="none" xmlns="http://www.w3.org/2000/svg">
<path fill-rule="evenodd" clip-rule="evenodd" d="M13.0246 1.70496C12.3688 1.43168 11.6309 1.43168 10.975 1.70496L3.38191 4.86875C2.38897 5.28248 1.74219 6.25265 1.74219 7.32833V16.6717C1.74219 17.7473 2.38897 18.7175 3.3819 19.1312L10.975 22.295C11.6309 22.5683 12.3688 22.5683 13.0246 22.295L20.6177 19.1312C21.6107 18.7175 22.2575 17.7473 22.2575 16.6717V7.32833C22.2575 6.25265 21.6107 5.28248 20.6177 4.86875L13.0246 1.70496ZM11.6582 3.34468C11.8768 3.25359 12.1228 3.25359 12.3414 3.34468L13.6673 3.89712L6.93414 6.97513L4.93964 6.14409L11.6582 3.34468ZM6.36974 8.66436V10.3536C6.36974 10.5989 6.56856 10.7977 6.81383 10.7977H7.70201C7.94727 10.7977 8.1461 10.5989 8.1461 10.3536V9.40451L11.1117 10.6402V20.4276L4.06512 17.4915C3.73414 17.3536 3.51855 17.0302 3.51855 16.6717V7.47636L6.36974 8.66436ZM9.16937 7.90648L15.9025 4.82847L19.0601 6.14411L11.9999 9.08585L9.16937 7.90648ZM12.888 10.6402L20.4811 7.4764V16.6717C20.4811 17.0302 20.2655 17.3536 19.9345 17.4915L12.888 20.4276V10.6402Z" fill="black" fill-opacity="0.55"/>
</svg>
