<svg viewBox="0 0 120 90" fill="none" xmlns="http://www.w3.org/2000/svg">
  <path
    d="M104.318 27.8177C104.318 40.4196 94.1019 50.6354 81.5 50.6354C68.8981 50.6354 58.6823 40.4196 58.6823 27.8177C58.6823 15.2158 68.8981 5 81.5 5C94.1019 5 104.318 15.2158 104.318 27.8177Z"
    fill="#E7F4F4" />
  <rect x="24.6823" y="37" width="65" height="18" rx="3" fill="white" />
  <rect x="25.1823" y="37.5" width="64" height="17" rx="2.5" stroke="black" stroke-opacity="0.14" />
  <rect x="15.6823" y="12" width="68" height="18" rx="3" fill="white" />
  <rect x="16.1823" y="12.5" width="67" height="17" rx="2.5" stroke="black" stroke-opacity="0.14" />
  <rect x="18.1823" y="61.5" width="61" height="17" rx="2.5" fill="white" stroke="#009995" />
  <path d="M23.6823 65L23.6823 74.4243" stroke="black" />
  <path d="M21.6823 65H25.6823" stroke="black" />
  <path d="M21.6823 74.4243H25.6823" stroke="black" />
  <path
    d="M25.4713 20.958C25.4713 20.157 25.0213 19.788 24.3823 19.788C23.6173 19.788 23.1133 20.31 23.1133 21.12V24H22.3483V19.239H23.0593V20.085H23.0863C23.3383 19.5 23.8603 19.131 24.5803 19.131C25.6063 19.131 26.2363 19.716 26.2363 20.868V24H25.4713V20.958ZM30.6031 24L30.3331 23.244H30.2881C30.0181 23.766 29.4871 24.108 28.8571 24.108C27.9031 24.108 27.2821 23.568 27.2821 22.749C27.2821 21.975 27.8671 21.435 28.9291 21.291L30.2971 21.102V20.769C30.2971 20.157 29.9551 19.761 29.2621 19.761C28.6501 19.761 28.2901 20.004 28.1371 20.562L27.4171 20.355C27.6241 19.59 28.3441 19.131 29.2711 19.131C30.4771 19.131 31.0621 19.752 31.0621 20.787V23.037L31.4131 24H30.6031ZM28.0651 22.731C28.0651 23.208 28.4071 23.496 29.0011 23.496C29.7841 23.496 30.2971 22.92 30.2971 22.02V21.66L29.1271 21.822C28.4071 21.912 28.0651 22.218 28.0651 22.731ZM32.4294 24V19.239H33.1314V20.022H33.1764C33.4194 19.446 33.9054 19.131 34.5354 19.131C35.2014 19.131 35.6694 19.455 35.8944 20.022H35.9394C36.1824 19.464 36.6954 19.131 37.3344 19.131C38.1804 19.131 38.8284 19.662 38.8284 20.805V24H38.0634V20.877C38.0634 20.184 37.7034 19.788 37.0644 19.788C36.3984 19.788 36.0114 20.238 36.0114 21.021V24H35.2464V20.877C35.2464 20.193 34.8864 19.788 34.2834 19.788C33.6084 19.788 33.1944 20.283 33.1944 21.093V24H32.4294ZM42.1176 24.108C40.7046 24.108 39.8676 23.109 39.8676 21.597C39.8676 20.121 40.8126 19.131 42.0816 19.131C43.3596 19.131 44.1876 19.968 44.1876 21.327C44.1876 21.498 44.1786 21.678 44.1696 21.777H40.6596C40.7046 22.857 41.2086 23.469 42.1716 23.469C42.7476 23.469 43.1796 23.244 43.4496 22.749L44.0616 23.046C43.7376 23.748 43.0806 24.108 42.1176 24.108ZM40.6686 21.21H43.4316C43.4046 20.274 42.8736 19.743 42.0726 19.743C41.3256 19.743 40.7586 20.175 40.6686 21.21Z"
    fill="black" fill-opacity="0.3" />
  <path
    d="M32.2023 49.828V49C31.0323 48.946 30.3033 48.361 30.0873 47.308L30.7893 47.137C30.9603 47.866 31.4373 48.28 32.2023 48.352V45.949L31.7613 45.814C30.8973 45.535 30.4563 45.013 30.4563 44.257C30.4563 43.348 31.1403 42.736 32.2023 42.664V41.827H32.7333V42.673C33.6423 42.763 34.2903 43.231 34.4973 44.005L33.8223 44.212C33.6243 43.69 33.2553 43.393 32.7333 43.303V45.364L33.1563 45.508C34.0563 45.814 34.5333 46.39 34.5333 47.236C34.5333 48.226 33.8493 48.874 32.7333 48.982V49.828H32.2023ZM31.2033 44.194C31.2033 44.662 31.4643 44.941 32.1213 45.166L32.2023 45.193V43.285C31.5723 43.33 31.2033 43.663 31.2033 44.194ZM32.7333 48.343C33.4083 48.271 33.7863 47.893 33.7863 47.299C33.7863 46.705 33.4713 46.363 32.7873 46.138L32.7333 46.12V48.343Z"
    fill="black" fill-opacity="0.3" />
  <path
    d="M90.4604 34.0508L92.6018 36.1922C93.0314 36.6218 93.0314 37.3183 92.6018 37.7478L83.5219 46.8277C83.4196 46.93 83.2837 46.9919 83.1394 47.002L80.0775 47.2154C79.7139 47.2407 79.4119 46.9387 79.4372 46.5751L79.6506 43.5132C79.6606 43.3689 79.7225 43.233 79.8249 43.1307L88.9047 34.0508C89.3343 33.6212 90.0308 33.6212 90.4604 34.0508Z"
    fill="white" fill-opacity="0.9" stroke="#009995" stroke-width="1.8" />
</svg>