<svg width="16" height="16" viewBox="0 0 16 16" fill="none" xmlns="http://www.w3.org/2000/svg">
<path fill-rule="evenodd" clip-rule="evenodd" d="M3.00033 14.1663C2.26395 14.1663 1.66699 13.5694 1.66699 12.833V5.19388C1.66699 4.7588 1.87927 4.35108 2.23571 4.10157L3.98934 2.07403C4.21345 1.91715 4.48039 1.83301 4.75396 1.83301H11.0966C11.3599 1.83301 11.6172 1.91093 11.8362 2.05694L13.7399 4.10385C14.1109 4.35114 14.3337 4.76745 14.3337 5.21325V7.41572C13.9358 7.24187 13.5109 7.11831 13.067 7.05307V6.09967H2.93366L2.93366 12.833C2.93366 12.8698 2.96351 12.8997 3.00033 12.8997H7.41444C7.49544 13.3453 7.6355 13.7703 7.82621 14.1663H3.00033ZM12.5501 4.83301L11.1336 3.11087C11.1227 3.10357 11.1098 3.09967 11.0966 3.09967L8.66699 3.09967V4.83301H12.5501ZM4.75396 3.09967L7.33366 3.09967V4.83301H3.39961L4.71572 3.11173C4.72693 3.10388 4.74028 3.09967 4.75396 3.09967Z" fill="#171718"/>
<path d="M12.3336 8.38967C10.3403 8.38967 8.72363 10.0063 8.72363 11.9997C8.72363 13.9963 10.3403 15.613 12.3336 15.613C14.3303 15.613 15.947 13.9963 15.947 11.9997C15.947 10.0063 14.3303 8.38967 12.3336 8.38967ZM12.3336 9.613C13.657 9.613 14.7236 10.6797 14.7236 11.9997C14.7236 12.4563 14.5936 12.8797 14.3736 13.2397L11.097 9.95967C11.457 9.743 11.8803 9.613 12.3336 9.613ZM10.2936 10.763L13.5736 14.0397C13.2136 14.2597 12.7903 14.3897 12.3336 14.3897C11.0136 14.3897 9.94697 13.323 9.94697 11.9997C9.94697 11.5463 10.077 11.123 10.2936 10.763Z" fill="#171718"/>
</svg>
