<svg width="16" height="16" viewBox="0 0 16 16" fill="none" xmlns="http://www.w3.org/2000/svg">
<path fill-rule="evenodd" clip-rule="evenodd" d="M2.36426 9.60962L4.98244 9.60964L5.89563 9.60963L6.37518 9.76819L7.03657 13.0257C7.20431 13.8518 6.57289 14.6243 5.7299 14.6243H4.47226C3.83815 14.6243 3.29176 14.1777 3.16559 13.5563L2.36426 9.60962ZM3.7248 9.60962L4.47226 13.291L5.7299 13.291L4.98244 9.60964L3.7248 9.60962Z" fill="#171718"/>
<path d="M13.0723 1.46222C13.9395 1.15712 14.8486 1.80067 14.8486 2.72003V10.7083C14.8486 11.6159 13.9609 12.258 13.0986 11.9749L5.89355 9.60968H2.48438C1.74827 9.6095 1.15156 9.01278 1.15137 8.27667V5.31183C1.15137 4.57556 1.74814 3.97802 2.48438 3.97784H5.92285L13.0723 1.46222ZM7.21191 4.93781V8.63898L13.5146 10.7083V2.72003L7.21191 4.93781ZM2.48438 5.31183V8.27667H5.87891V5.31183H2.48438Z" fill="#171718"/>
</svg>
