<svg width="24" height="24" viewBox="0 0 24 24" fill="none" xmlns="http://www.w3.org/2000/svg">
<path d="M15.1317 5.65577H5.60712C5.32188 5.65577 5.09065 5.43124 5.09065 5.15426V4.25152C5.09065 3.97454 5.32188 3.75 5.60712 3.75H15.1317C16.8146 3.75 18.1788 5.07478 18.1788 6.70897V7.32515C21.2626 7.74001 23.2333 10.4917 22.6852 12.677L22.0809 15.9328C21.9691 16.3302 21.5378 17.8887 20.2141 17.8887H19.6804C19.3753 19.2392 18.136 20.25 16.6536 20.25C15.1911 20.25 13.9653 19.2662 13.6396 17.943H9.85694C9.53123 19.2662 8.30539 20.25 6.84293 20.25C5.38046 20.25 4.15462 19.2662 3.82891 17.943H2.66379C2.37856 17.943 2.14732 17.7185 2.14732 17.4415V16.5388C2.14732 16.2618 2.37856 16.0372 2.66379 16.0372H4.00196C4.48014 14.9745 5.57221 14.2318 6.84293 14.2318C8.11364 14.2318 9.20572 14.9745 9.6839 16.0372H13.8126C14.2908 14.9745 15.3829 14.2318 16.6536 14.2318C17.9025 14.2318 18.9789 14.9493 19.4695 15.9829H20.0348C20.0633 15.9829 20.0864 15.9605 20.0864 15.9328L20.7227 12.677C21.041 11.0417 19.8055 9.16641 17.1975 9.16641H16.7327C16.4475 9.16641 16.2162 8.94187 16.2162 8.66489V6.70897C16.2162 6.1273 15.7307 5.65577 15.1317 5.65577ZM1.22266 11.2728C1.22266 10.9958 1.45389 10.7713 1.73913 10.7713L8.96971 10.7713C9.25495 10.7713 9.48618 10.9958 9.48618 11.2728V12.1755C9.48618 12.4525 9.25495 12.677 8.96971 12.677L1.73913 12.6771C1.45389 12.6771 1.22266 12.4525 1.22266 12.1755V11.2728ZM11.0561 7.82667C11.0561 7.54969 10.8249 7.32515 10.5397 7.32515H3.82556C3.54033 7.32515 3.30909 7.54969 3.30909 7.82667V8.72941C3.30909 9.00639 3.54033 9.23092 3.82556 9.23092H10.5397C10.8249 9.23092 11.0561 9.00639 11.0561 8.72941V7.82667ZM16.6536 18.3442C17.2811 18.3442 17.7898 17.8502 17.7898 17.2409C17.7898 16.6315 17.2811 16.1375 16.6536 16.1375C16.026 16.1375 15.5173 16.6315 15.5173 17.2409C15.5173 17.8502 16.026 18.3442 16.6536 18.3442ZM7.97916 17.2409C7.97916 16.6315 7.47045 16.1375 6.84293 16.1375C6.2154 16.1375 5.70669 16.6315 5.70669 17.2409C5.70669 17.8502 6.2154 18.3442 6.84293 18.3442C7.47045 18.3442 7.97916 17.8502 7.97916 17.2409Z" fill="black" fill-opacity="0.55"/>
</svg>
