<svg width="16" height="16" viewBox="0 0 16 16" fill="none" xmlns="http://www.w3.org/2000/svg">
<path d="M1.65224 2.73497C1.5 3.10251 1.5 3.56845 1.5 4.50034C1.5 5.43222 1.5 5.89816 1.65224 6.2657C1.85523 6.75576 2.24458 7.14511 2.73463 7.34809C3.10218 7.50034 3.56812 7.50034 4.5 7.50034C5.43188 7.50034 5.89782 7.50034 6.26537 7.34809C6.75542 7.14511 7.14477 6.75576 7.34776 6.2657C7.5 5.89816 7.5 5.43222 7.5 4.50034C7.5 3.56845 7.5 3.10251 7.34776 2.73497C7.14477 2.24491 6.75542 1.85556 6.26537 1.65258C5.89782 1.50034 5.43188 1.50034 4.5 1.50034C3.56812 1.50034 3.10218 1.50034 2.73463 1.65258C2.24458 1.85556 1.85523 2.24491 1.65224 2.73497ZM3.49645 6.15106C3.30708 6.13814 3.25036 6.11843 3.24488 6.11626C3.08153 6.04859 2.95172 5.91882 2.88406 5.75547C2.88188 5.74999 2.86219 5.69326 2.84927 5.50389C2.83406 5.28088 2.83333 4.98452 2.83333 4.50034C2.83333 4.01615 2.83406 3.71979 2.84927 3.49679C2.86219 3.30741 2.8819 3.25069 2.88408 3.24521C2.95174 3.08186 3.08152 2.95206 3.24487 2.88439C3.25035 2.88222 3.30708 2.86253 3.49645 2.84961C3.71945 2.83439 4.01582 2.83367 4.5 2.83367C4.98418 2.83367 5.28055 2.83439 5.50355 2.84961C5.69292 2.86253 5.74964 2.88224 5.75512 2.88442C5.91847 2.95208 6.04828 3.08185 6.11594 3.2452C6.11812 3.25068 6.13781 3.30741 6.15073 3.49679C6.16595 3.71979 6.16667 4.01615 6.16667 4.50034C6.16667 4.98452 6.16595 5.28088 6.15073 5.50389C6.13781 5.69326 6.1181 5.74998 6.11592 5.75546C6.04826 5.91881 5.91848 6.04862 5.75513 6.11628C5.74965 6.11846 5.69292 6.13814 5.50355 6.15106C5.28055 6.16628 4.98418 6.167 4.5 6.167C4.01582 6.167 3.71945 6.16628 3.49645 6.15106Z" fill="#171718"/>
<path d="M1.65224 9.73497C1.5 10.1025 1.5 10.5685 1.5 11.5003C1.5 12.4322 1.5 12.8982 1.65224 13.2657C1.85523 13.7558 2.24458 14.1451 2.73463 14.3481C3.10218 14.5003 3.56812 14.5003 4.5 14.5003C5.43188 14.5003 5.89782 14.5003 6.26537 14.3481C6.75542 14.1451 7.14477 13.7558 7.34776 13.2657C7.5 12.8982 7.5 12.4322 7.5 11.5003C7.5 10.5685 7.5 10.1025 7.34776 9.73497C7.14477 9.24491 6.75542 8.85557 6.26537 8.65258C5.89782 8.50034 5.43188 8.50034 4.5 8.50034C3.56812 8.50034 3.10218 8.50034 2.73463 8.65258C2.24458 8.85557 1.85523 9.24491 1.65224 9.73497ZM3.49645 13.1511C3.30708 13.1381 3.25036 13.1184 3.24488 13.1163C3.08153 13.0486 2.95172 12.9188 2.88406 12.7555C2.88188 12.75 2.86219 12.6933 2.84927 12.5039C2.83406 12.2809 2.83333 11.9845 2.83333 11.5003C2.83333 11.0162 2.83406 10.7198 2.84927 10.4968C2.86219 10.3074 2.8819 10.2507 2.88408 10.2452C2.95174 10.0819 3.08152 9.95205 3.24487 9.88439C3.25035 9.88222 3.30708 9.86253 3.49645 9.84961C3.71945 9.83439 4.01582 9.83367 4.5 9.83367C4.98418 9.83367 5.28055 9.83439 5.50355 9.84961C5.69292 9.86253 5.74964 9.88224 5.75512 9.88442C5.91847 9.95208 6.04828 10.0819 6.11594 10.2452C6.11812 10.2507 6.13781 10.3074 6.15073 10.4968C6.16595 10.7198 6.16667 11.0162 6.16667 11.5003C6.16667 11.9845 6.16595 12.2809 6.15073 12.5039C6.13781 12.6933 6.1181 12.75 6.11592 12.7555C6.04826 12.9188 5.91848 13.0486 5.75513 13.1163C5.74965 13.1185 5.69292 13.1381 5.50355 13.1511C5.28055 13.1663 4.98418 13.167 4.5 13.167C4.01582 13.167 3.71945 13.1663 3.49645 13.1511Z" fill="#171718"/>
<path d="M8.5 4.50034C8.5 3.56845 8.5 3.10251 8.65224 2.73497C8.85523 2.24491 9.24458 1.85556 9.73463 1.65258C10.1022 1.50034 10.5681 1.50034 11.5 1.50034C12.4319 1.50034 12.8978 1.50034 13.2654 1.65258C13.7554 1.85556 14.1448 2.24491 14.3478 2.73497C14.5 3.10251 14.5 3.56845 14.5 4.50034C14.5 5.43222 14.5 5.89816 14.3478 6.2657C14.1448 6.75576 13.7554 7.14511 13.2654 7.34809C12.8978 7.50034 12.4319 7.50034 11.5 7.50034C10.5681 7.50034 10.1022 7.50034 9.73463 7.34809C9.24458 7.14511 8.85523 6.75576 8.65224 6.2657C8.5 5.89816 8.5 5.43222 8.5 4.50034ZM11.5 6.167C11.9842 6.167 12.2805 6.16628 12.5036 6.15106C12.6929 6.13814 12.7496 6.11843 12.7551 6.11626C12.9185 6.04859 13.0483 5.91882 13.1159 5.75547C13.1181 5.74999 13.1378 5.69326 13.1507 5.50389C13.1659 5.28088 13.1667 4.98452 13.1667 4.50034C13.1667 4.01615 13.1659 3.71979 13.1507 3.49679C13.1378 3.30741 13.1181 3.25069 13.1159 3.24521C13.0483 3.08186 12.9185 2.95206 12.7551 2.88439C12.7497 2.88222 12.6929 2.86253 12.5036 2.84961C12.2805 2.83439 11.9842 2.83367 11.5 2.83367C11.0158 2.83367 10.7195 2.83439 10.4965 2.84961C10.3071 2.86253 10.2504 2.88224 10.2449 2.88442C10.0815 2.95208 9.95172 3.08185 9.88406 3.2452C9.88188 3.25068 9.86219 3.30741 9.84927 3.49679C9.83406 3.71979 9.83333 4.01615 9.83333 4.50034C9.83333 4.98452 9.83406 5.28088 9.84927 5.50389C9.86219 5.69326 9.8819 5.74998 9.88408 5.75546C9.95174 5.91881 10.0815 6.04862 10.2449 6.11628C10.2503 6.11846 10.3071 6.13814 10.4965 6.15106C10.7195 6.16628 11.0158 6.167 11.5 6.167Z" fill="#171718"/>
<path d="M8.703 8.84901C8.66667 8.92031 8.66667 9.01365 8.66667 9.20034V9.967C8.66667 10.1537 8.66667 10.247 8.703 10.3183C8.73496 10.3811 8.78595 10.432 8.84867 10.464C8.91997 10.5003 9.01332 10.5003 9.2 10.5003H9.96667C10.1534 10.5003 10.2467 10.5003 10.318 10.464C10.3807 10.432 10.4317 10.3811 10.4637 10.3183C10.5 10.247 10.5 10.1537 10.5 9.967V9.20034C10.5 9.01365 10.5 8.92031 10.4637 8.84901C10.4317 8.78628 10.3807 8.73529 10.318 8.70333C10.2467 8.667 10.1534 8.667 9.96667 8.667H9.2C9.01332 8.667 8.91997 8.667 8.84867 8.70333C8.78595 8.73529 8.73496 8.78628 8.703 8.84901Z" fill="#171718"/>
<path d="M10.5 11.0337C10.5 10.847 10.5 10.7536 10.5363 10.6823C10.5683 10.6196 10.6193 10.5686 10.682 10.5367C10.7533 10.5003 10.8466 10.5003 11.0333 10.5003H11.8C11.9867 10.5003 12.08 10.5003 12.1513 10.5367C12.2141 10.5686 12.265 10.6196 12.297 10.6823C12.3333 10.7536 12.3333 10.847 12.3333 11.0337V11.8003C12.3333 11.987 12.3333 12.0804 12.297 12.1517C12.265 12.2144 12.2141 12.2654 12.1513 12.2973C12.08 12.3337 11.9867 12.3337 11.8 12.3337H11.0333C10.8466 12.3337 10.7533 12.3337 10.682 12.2973C10.6193 12.2654 10.5683 12.2144 10.5363 12.1517C10.5 12.0804 10.5 11.987 10.5 11.8003V11.0337Z" fill="#171718"/>
<path d="M12.3697 12.5157C12.3333 12.587 12.3333 12.6803 12.3333 12.867V13.6337C12.3333 13.8204 12.3333 13.9137 12.3697 13.985C12.4016 14.0477 12.4526 14.0987 12.5153 14.1307C12.5866 14.167 12.68 14.167 12.8667 14.167H13.6333C13.82 14.167 13.9134 14.167 13.9847 14.1307C14.0474 14.0987 14.0984 14.0477 14.1303 13.985C14.1667 13.9137 14.1667 13.8204 14.1667 13.6337V12.867C14.1667 12.6803 14.1667 12.587 14.1303 12.5157C14.0984 12.453 14.0474 12.402 13.9847 12.37C13.9134 12.3337 13.82 12.3337 13.6333 12.3337H12.8667C12.68 12.3337 12.5866 12.3337 12.5153 12.37C12.4526 12.402 12.4016 12.453 12.3697 12.5157Z" fill="#171718"/>
<path d="M8.66667 12.867C8.66667 12.6803 8.66667 12.587 8.703 12.5157C8.73496 12.453 8.78595 12.402 8.84867 12.37C8.91997 12.3337 9.01332 12.3337 9.2 12.3337H9.96667C10.1534 12.3337 10.2467 12.3337 10.318 12.37C10.3807 12.402 10.4317 12.453 10.4637 12.5157C10.5 12.587 10.5 12.6803 10.5 12.867V13.6337C10.5 13.8204 10.5 13.9137 10.4637 13.985C10.4317 14.0477 10.3807 14.0987 10.318 14.1307C10.2467 14.167 10.1534 14.167 9.96667 14.167H9.2C9.01332 14.167 8.91997 14.167 8.84867 14.1307C8.78595 14.0987 8.73496 14.0477 8.703 13.985C8.66667 13.9137 8.66667 13.8204 8.66667 13.6337V12.867Z" fill="#171718"/>
<path d="M12.3697 8.84901C12.3333 8.92031 12.3333 9.01365 12.3333 9.20034V9.967C12.3333 10.1537 12.3333 10.247 12.3697 10.3183C12.4016 10.3811 12.4526 10.432 12.5153 10.464C12.5866 10.5003 12.68 10.5003 12.8667 10.5003H13.6333C13.82 10.5003 13.9134 10.5003 13.9847 10.464C14.0474 10.432 14.0984 10.3811 14.1303 10.3183C14.1667 10.247 14.1667 10.1537 14.1667 9.967V9.20034C14.1667 9.01365 14.1667 8.92031 14.1303 8.84901C14.0984 8.78628 14.0474 8.73529 13.9847 8.70333C13.9134 8.667 13.82 8.667 13.6333 8.667H12.8667C12.68 8.667 12.5866 8.667 12.5153 8.70333C12.4526 8.73529 12.4016 8.78628 12.3697 8.84901Z" fill="#171718"/>
</svg>
