<svg width="16" height="16" viewBox="0 0 16 16" fill="none" xmlns="http://www.w3.org/2000/svg">
<path fill-rule="evenodd" clip-rule="evenodd" d="M8.69345 1.57643C8.26747 1.31697 7.73228 1.31697 7.30629 1.57643L1.78135 4.94156C1.38406 5.18355 1.1416 5.6151 1.1416 6.0803V13.5394C1.1416 13.9444 1.46993 14.2728 1.87493 14.2728H3.9986L4.40824 14.272C4.81325 14.272 5.14157 13.9437 5.14157 13.5387L5.14156 8.27315H6.52963C6.82341 7.77199 7.19508 7.32201 7.628 6.93982H4.80823C4.25594 6.93982 3.80823 7.38753 3.80823 7.93982L3.80824 12.9387H2.8244L2.47493 12.9394V6.0803L7.99987 2.71517L13.5248 6.0803V6.08475C14.0129 6.31207 14.4617 6.60963 14.8581 6.96444V6.0803C14.8581 5.61511 14.6157 5.18355 14.2184 4.94156L8.69345 1.57643ZM11.2292 7.98928C9.55464 7.98928 8.19716 9.34675 8.19716 11.0213C8.19716 12.6958 9.55464 14.0533 11.2292 14.0533C12.9037 14.0533 14.2612 12.6958 14.2612 11.0213C14.2612 9.34675 12.9037 7.98928 11.2292 7.98928ZM6.86383 11.0213C6.86383 8.61037 8.81826 6.65594 11.2292 6.65594C13.6401 6.65594 15.5945 8.61037 15.5945 11.0213C15.5945 13.4322 13.6401 15.3866 11.2292 15.3866C8.81826 15.3866 6.86383 13.4322 6.86383 11.0213ZM10.9515 8.74839C10.7674 8.74839 10.6181 8.89763 10.6181 9.08173L10.6181 11.0971C10.6181 11.2811 10.7674 11.4304 10.9515 11.4304H11.7803C11.9644 11.4304 12.1136 11.2811 12.1136 11.0971L12.1136 9.08173C12.1136 8.89763 11.9644 8.74839 11.7803 8.74839H10.9515ZM11.3659 11.7989C10.9529 11.7989 10.6182 12.1337 10.6182 12.5466C10.6182 12.9596 10.9529 13.2944 11.3659 13.2944C11.7789 13.2944 12.1136 12.9596 12.1136 12.5466C12.1136 12.1337 11.7789 11.7989 11.3659 11.7989Z" fill="#171718"/>
</svg>
