<svg width="16" height="16" viewBox="0 0 16 16" fill="none" xmlns="http://www.w3.org/2000/svg">
<path d="M1.94824 13.5198V2.15984C1.94824 1.98311 2.09223 1.83984 2.26985 1.83984H2.91307C3.09069 1.83984 3.23467 1.98311 3.23467 2.15984V12.8798H14.0219C14.1996 12.8798 14.3436 13.0231 14.3436 13.1998V13.8398C14.3436 14.0166 14.1996 14.1598 14.0219 14.1598H2.59146C2.23622 14.1598 1.94824 13.8733 1.94824 13.5198Z" fill="#171718"/>
<path d="M4.98487 9.90036C4.82718 9.80977 4.77108 9.61044 4.85857 9.45154L6.68944 6.12606C6.77974 5.96203 6.98798 5.90402 7.15076 5.99753L10.1738 7.73418L12.4161 3.95731C12.5096 3.79992 12.713 3.74677 12.8721 3.83817L13.4529 4.17185C13.614 4.26441 13.6685 4.46985 13.5742 4.62943L10.8328 9.2704C10.7395 9.42824 10.5358 9.48171 10.3764 9.39017L7.34453 7.64845L6.02497 10.1006C5.93565 10.2666 5.726 10.3261 5.56212 10.232L4.98487 9.90036Z" fill="#171718"/>
</svg>
