<svg width="16" height="16" viewBox="0 0 16 16" fill="none" xmlns="http://www.w3.org/2000/svg">
<path fill-rule="evenodd" clip-rule="evenodd" d="M12.207 8.83301C14.14 8.83327 15.7068 10.4 15.707 12.333C15.707 14.2662 14.1401 15.8327 12.207 15.833C10.2737 15.833 8.70703 14.2663 8.70703 12.333C8.70723 10.3998 10.2738 8.83301 12.207 8.83301ZM12.2002 13.6904C11.7069 13.6904 11.5029 13.947 11.5029 14.2637C11.5031 14.5802 11.707 14.833 12.2002 14.833C12.6965 14.8329 12.8964 14.5801 12.8965 14.2637C12.8965 13.9471 12.6966 13.6905 12.2002 13.6904ZM11.8496 9.83301C11.7031 9.83315 11.5836 9.95344 11.5869 10.0967L11.6729 12.8164C11.6729 12.9564 11.7903 13.0732 11.9336 13.0732H12.4766C12.6199 13.0732 12.7402 12.9564 12.7402 12.8164L12.833 10.0967C12.833 9.9535 12.7134 9.83325 12.5703 9.83301H11.8496Z" fill="#171718"/>
<path fill-rule="evenodd" clip-rule="evenodd" d="M9.83789 0.550781C10.39 0.550889 10.8377 0.998733 10.8379 1.55078V1.63184H12.4082C13.3286 1.63189 14.0752 2.37842 14.0752 3.29883V7.87793C13.6572 7.70241 13.2092 7.58476 12.7412 7.5332V3.29883C12.7412 3.11479 12.5922 2.96588 12.4082 2.96582H10.8379V3.04883C10.8379 3.60104 10.3901 4.04872 9.83789 4.04883H6.15332C5.60117 4.04869 5.15332 3.60102 5.15332 3.04883V2.96582H3.59277C3.4087 2.96582 3.25881 3.11475 3.25879 3.29883V13.2109C3.25905 13.3948 3.40884 13.5439 3.59277 13.5439H7.5293C7.65241 14.021 7.84732 14.469 8.10059 14.877H3.59277C2.67248 14.877 1.92604 14.1312 1.92578 13.2109V3.29883C1.92581 2.37839 2.67233 1.63184 3.59277 1.63184H5.15332V1.55078C5.15351 0.998752 5.60129 0.550923 6.15332 0.550781H9.83789ZM6.4873 2.71582H9.50391V1.88477H6.4873V2.71582Z" fill="#171718"/>
<path d="M7.61426 8.71387C7.7982 8.71404 7.94727 8.86386 7.94727 9.04785V9.71387C7.94727 9.89785 7.7982 10.0477 7.61426 10.0479H5.28027C5.09633 10.0477 4.94727 9.89785 4.94727 9.71387V9.04785C4.94727 8.86386 5.09633 8.71404 5.28027 8.71387H7.61426Z" fill="#171718"/>
<path d="M10.6143 5.71387C10.7982 5.71404 10.9473 5.86387 10.9473 6.04785V6.71387C10.9473 6.89785 10.7982 7.04768 10.6143 7.04785H5.28027C5.09633 7.04768 4.94727 6.89785 4.94727 6.71387V6.04785C4.94727 5.86387 5.09633 5.71404 5.28027 5.71387H10.6143Z" fill="#171718"/>
</svg>
